<svg xmlns="http://www.w3.org/2000/svg" viewBox="0 0 1920 1080"><style>#B{animation:waves 5s linear infinite}#C{animation:waves2 5s linear infinite}@keyframes waves{0%{transform:translate(0, 0)}100%{transform:translate(-274.2857px, -180px)}}@keyframes waves2{100%{transform:translate(0, 0)}0%{transform:translate(-274.2857px, -180px)}}</style><clipPath id="clip"><rect style="fill:none;" width="1920" height="1080"/></clipPath><g id="A" style="clip-path: url(#clip);"><path d="M0 0h1920v1080H0z" fill="#d1200d"/><g id="B"><path d="M2194.52 720.08V1260h-823.05L0 1259.99V0h548.73l548.52.01c68.58 45 22.5 75.24 91.07 120.24s114.65 14.76 183.22 59.76c68.58 45 22.49 75.24 91.07 120.24 68.57 45 114.65 14.76 183.22 59.76s22.49 75.24 91.07 120.24c68.57 45 114.65 14.76 183.22 59.76s22.49 75.24 91.07 120.24c68.57 45 114.65 14.76 183.22 59.76.04.02.07.05.11.07z" opacity=".12"/><path d="M1920 1259.99c-68.56-44.98-114.64-14.75-183.2-59.74-68.57-45-22.49-75.24-91.06-120.24s-114.65-14.76-183.23-59.76c-68.57-45-22.49-75.24-91.06-120.24s-114.65-14.76-183.23-59.76-22.49-75.24-91.06-120.24-114.65-14.76-183.23-59.76c-68.57-45-22.49-75.24-91.06-120.24s-114.65-14.76-183.23-59.76c-68.57-45-22.49-75.24-91.06-120.24s-114.65-14.76-183.23-59.76c-68.57-45-22.49-75.24-91.06-120.24s-114.65-14.76-183.23-59.76C22.5 75.24 68.58 45 0 0v1259.98h1920z" opacity=".12"/><path d="M822.94 1259.99H0V719.95l.1.06c68.57 45 22.49 75.24 91.06 120.24s114.65 14.76 183.23 59.76c68.57 45 22.49 75.24 91.06 120.24s114.65 14.76 183.23 59.76c68.57 45 22.49 75.24 91.06 120.24 68.56 44.99 114.64 14.77 183.2 59.74z" opacity=".12"/></g><g id="C"><path d="m2194.52,360.04v899.95H0V0h1645.88c68.57,45,22.49,75.24,91.06,120.24,68.58,45,114.66,14.76,183.23,59.76s22.49,75.24,91.06,120.24c68.58,45,114.66,14.76,183.23,59.76.02.01.04.03.06.04Z" opacity=".12"/><path d="M2194.52 1080.05V1260h-823.05L0 1259.99V0h548.73c68.57 45.01 22.49 75.25 91.06 120.25s114.66 14.76 183.23 59.76 22.49 75.24 91.06 120.24 114.65 14.76 183.23 59.76c68.57 45 22.49 75.24 91.06 120.24s114.65 14.76 183.23 59.76c68.57 45 22.49 75.24 91.06 120.24s114.65 14.76 183.23 59.76c68.57 45 22.49 75.24 91.06 120.24s114.65 14.76 183.22 59.76c68.58 45 22.5 75.24 91.07 120.24s114.65 14.76 183.22 59.76c.02 0 .04.03.06.04z" opacity=".12"/><path d="M1371.47 1259.99H0V359.98l.05.03c68.57 45 22.49 75.24 91.06 120.24s114.66 14.76 183.23 59.76 22.49 75.24 91.06 120.24 114.65 14.76 183.23 59.76c68.57 45 22.49 75.24 91.06 120.24s114.65 14.76 183.23 59.76c68.57 45 22.49 75.24 91.06 120.24s114.65 14.76 183.23 59.76c68.57 45 22.49 75.24 91.06 120.24 68.56 44.99 114.64 14.77 183.2 59.74z" opacity=".12"/></g></g></svg>